# Blender v2.93.1 OBJ File: 'Note.blend'
# www.blender.org
mtllib Note.mtl
o Куб
v -0.777258 0.013980 0.473332
v -0.777258 0.033980 0.473332
v -0.770800 0.040724 -0.446410
v -0.770800 0.060724 -0.446410
v 0.798312 0.000404 0.473913
v 0.798312 0.020404 0.473913
v 0.797854 -0.007607 -0.473310
v 0.797854 0.012393 -0.473310
v -0.797479 -0.011299 -0.221208
v -0.779515 0.004157 -0.006145
v -0.780870 -0.015526 0.240445
v -0.780870 0.004474 0.240445
v -0.779515 0.024157 -0.006145
v -0.797479 0.008701 -0.221208
v 0.800000 -0.010000 0.240000
v 0.810839 -0.013152 0.000000
v 0.800000 -0.010000 -0.240000
v 0.800000 0.010000 -0.240000
v 0.810839 0.006848 0.000000
v 0.800000 0.010000 0.240000
v 0.479404 -0.025606 -0.478353
v 0.163372 0.017508 -0.449770
v -0.152368 -0.002527 -0.469865
v -0.486530 0.011273 -0.471415
v -0.486530 0.031273 -0.471415
v -0.152368 0.017473 -0.469865
v 0.163372 0.037508 -0.449770
v 0.479404 -0.005606 -0.478353
v -0.480000 -0.010000 0.480000
v -0.160771 -0.014702 0.481709
v 0.164509 0.036118 0.431022
v 0.480177 0.012935 0.457152
v 0.480177 0.032935 0.457152
v 0.164509 0.056118 0.431022
v -0.160771 0.005298 0.481709
v -0.480000 0.010000 0.480000
v -0.480000 0.010000 -0.240000
v -0.160000 0.010000 -0.240000
v 0.138514 0.004588 -0.263301
v 0.472167 0.000179 -0.213081
v -0.480000 0.010000 0.000000
v -0.182874 0.007680 -0.020379
v 0.151248 0.001811 -0.005531
v 0.480000 0.010000 0.000000
v -0.480000 0.010000 0.240000
v -0.143935 0.001815 0.207173
v 0.160000 0.010000 0.240000
v 0.423678 0.002000 0.259266
v 0.472167 -0.019821 -0.213081
v 0.138514 -0.015412 -0.263301
v -0.160000 -0.010000 -0.240000
v -0.480000 -0.010000 -0.240000
v 0.480000 -0.010000 0.000000
v 0.151248 -0.018189 -0.005531
v -0.182874 -0.012320 -0.020379
v -0.480000 -0.010000 0.000000
v 0.423678 -0.018001 0.259266
v 0.160000 -0.010000 0.240000
v -0.143935 -0.018185 0.207173
v -0.480000 -0.010000 0.240000
vt 0.625000 0.187500
vt 0.375000 0.250000
vt 0.375000 0.187500
vt 0.625000 0.450000
vt 0.375000 0.500000
vt 0.375000 0.450000
vt 0.625000 0.687500
vt 0.375000 0.750000
vt 0.375000 0.687500
vt 0.625000 0.950000
vt 0.375000 1.000000
vt 0.375000 0.950000
vt 0.325000 0.750000
vt 0.325000 0.687500
vt 0.875000 0.687500
vt 0.825000 0.750000
vt 0.825000 0.687500
vt 0.875000 0.500000
vt 0.825000 0.562500
vt 0.825000 0.500000
vt 0.875000 0.562500
vt 0.825000 0.625000
vt 0.875000 0.625000
vt 0.325000 0.562500
vt 0.325000 0.500000
vt 0.375000 0.562500
vt 0.325000 0.625000
vt 0.375000 0.625000
vt 0.625000 0.500000
vt 0.625000 0.562500
vt 0.625000 0.625000
vt 0.625000 0.000000
vt 0.375000 0.062500
vt 0.375000 0.000000
vt 0.625000 0.062500
vt 0.375000 0.125000
vt 0.625000 0.125000
vt 0.175000 0.625000
vt 0.125000 0.687500
vt 0.125000 0.625000
vt 0.225000 0.625000
vt 0.175000 0.687500
vt 0.275000 0.625000
vt 0.225000 0.687500
vt 0.275000 0.687500
vt 0.175000 0.562500
vt 0.125000 0.562500
vt 0.225000 0.562500
vt 0.275000 0.562500
vt 0.175000 0.500000
vt 0.125000 0.500000
vt 0.225000 0.500000
vt 0.275000 0.500000
vt 0.675000 0.625000
vt 0.725000 0.625000
vt 0.675000 0.687500
vt 0.775000 0.625000
vt 0.725000 0.687500
vt 0.775000 0.687500
vt 0.675000 0.562500
vt 0.725000 0.562500
vt 0.775000 0.562500
vt 0.675000 0.500000
vt 0.725000 0.500000
vt 0.775000 0.500000
vt 0.625000 0.750000
vt 0.675000 0.750000
vt 0.725000 0.750000
vt 0.775000 0.750000
vt 0.125000 0.750000
vt 0.175000 0.750000
vt 0.225000 0.750000
vt 0.275000 0.750000
vt 0.375000 0.800000
vt 0.625000 0.800000
vt 0.375000 0.850000
vt 0.625000 0.850000
vt 0.375000 0.900000
vt 0.625000 0.900000
vt 0.625000 0.250000
vt 0.375000 0.300000
vt 0.625000 0.300000
vt 0.375000 0.350000
vt 0.625000 0.350000
vt 0.375000 0.400000
vt 0.625000 0.400000
vt 0.625000 1.000000
vt 0.875000 0.750000
vn -0.9931 0.0000 -0.1176
vn 0.0158 0.0000 -0.9999
vn 1.0000 0.0000 0.0072
vn -0.0224 0.0000 0.9997
vn 0.0285 -0.9888 0.1464
vn -0.0184 0.9998 0.0000
vn 0.1103 0.9900 0.0879
vn -0.0041 1.0000 0.0000
vn 0.0472 0.9989 0.0000
vn 0.0560 -0.9982 0.0233
vn 0.0336 -0.9984 0.0448
vn -0.0095 -0.9994 -0.0329
vn 1.0000 0.0000 -0.0092
vn 0.9990 0.0000 -0.0451
vn 0.9990 0.0000 0.0451
vn -0.9999 0.0000 0.0155
vn -1.0000 0.0000 -0.0055
vn -0.9965 0.0000 0.0832
vn -0.0454 -0.9958 -0.0797
vn -0.0078 -1.0000 0.0000
vn -0.0165 -0.9996 -0.0229
vn 0.0243 -0.9992 0.0325
vn 0.0083 -0.9974 0.0710
vn 0.0000 -1.0000 0.0000
vn -0.0191 -0.9997 -0.0126
vn -0.0117 -0.9999 -0.0102
vn -0.1207 -0.9640 -0.2370
vn -0.0407 -0.9951 -0.0903
vn 0.0652 -0.9974 -0.0303
vn -0.1496 -0.9701 -0.1912
vn 0.0095 0.9999 -0.0127
vn -0.0253 0.9994 0.0253
vn 0.0191 0.9992 -0.0340
vn 0.0095 0.9997 0.0241
vn -0.0288 0.9995 0.0144
vn 0.0202 0.9987 -0.0468
vn 0.0189 0.9998 0.0098
vn 0.0000 0.9999 0.0106
vn -0.0566 0.9983 0.0108
vn 0.1336 0.9909 -0.0180
vn -0.0729 0.9838 0.1640
vn 0.0411 0.9986 0.0338
vn -0.0235 0.9987 -0.0446
vn 0.0420 0.9852 -0.1660
vn -0.0008 0.9721 -0.2347
vn 0.0232 0.9997 -0.0113
vn 0.0184 -0.9919 0.1254
vn -0.0243 -0.9997 0.0000
vn 0.0254 -0.9996 0.0142
vn -0.0467 -0.9708 0.2355
vn -0.0526 0.0000 0.9986
vn -0.0825 0.0000 0.9966
vn 0.1540 0.0000 0.9881
vn -0.0054 0.0000 1.0000
vn -0.0876 0.0000 -0.9962
vn 0.0046 0.0000 -1.0000
vn 0.0635 0.0000 -0.9980
vn -0.0901 0.0000 -0.9959
vn -0.0416 -0.9982 0.0441
vn 0.0826 0.9885 -0.1265
vn 0.0094 0.9741 0.2261
vn 0.0486 0.9959 -0.0756
vn -0.0182 0.9967 0.0795
vn 0.0291 -0.9995 -0.0105
vn -0.0095 -0.9999 -0.0127
vn 0.0220 -0.9997 0.0141
vn 0.0184 -0.9998 0.0000
vn -0.0264 -0.9994 -0.0212
vn 0.0234 -0.9992 0.0325
vn -0.0276 -0.9989 -0.0368
vn -0.0472 -0.9989 0.0000
vn -0.0086 -0.9999 -0.0115
vn -0.0171 -0.9998 -0.0099
vn 0.0241 -0.9987 0.0451
vn -0.0013 -0.9958 -0.0915
vn 0.0000 -0.9995 -0.0325
vn -0.0317 -0.9835 -0.1779
vn -0.0164 -0.9996 0.0214
vn -0.0199 0.9995 0.0265
vn 0.0328 0.9989 -0.0345
vn -0.0302 0.9991 0.0309
vn 0.0243 0.9997 0.0000
vn 0.0095 0.9989 -0.0464
vn -0.0251 0.9996 0.0120
vn 0.0170 0.9998 0.0123
vn 0.0078 1.0000 0.0000
vn -0.0318 0.9992 -0.0227
vn -0.0129 0.9850 0.1722
vn 0.0207 0.9992 0.0332
vn 0.0000 0.9958 0.0915
vn 0.0476 0.9847 -0.1675
vn 0.0906 0.9676 -0.2357
vn -0.1577 0.9872 -0.0222
vn 0.0147 0.9999 0.0000
vn -0.0804 -0.9968 0.0000
vn -0.0148 -0.9998 0.0118
vn 0.1847 -0.9563 0.2265
vn -0.0867 -0.9802 0.1780
g Куб_Куб_Материал
usemtl Материал
s off
f 14/1/1 3/2/1 9/3/1
f 28/4/2 7/5/2 21/6/2
f 20/7/3 5/8/3 15/9/3
f 36/10/4 1/11/4 29/12/4
f 15/9/5 32/13/5 57/14/5
f 12/15/6 36/16/6 45/17/6
f 4/18/7 37/19/7 25/20/7
f 14/21/8 41/22/8 37/19/8
f 13/23/9 45/17/9 41/22/9
f 7/5/10 49/24/10 21/25/10
f 17/26/11 53/27/11 49/24/11
f 16/28/12 57/14/12 53/27/12
f 8/29/13 17/26/13 7/5/13
f 18/30/14 16/28/14 17/26/14
f 19/31/15 15/9/15 16/28/15
f 2/32/16 11/33/16 1/34/16
f 12/35/17 10/36/17 11/33/17
f 13/37/18 9/3/18 10/36/18
f 56/38/19 11/39/19 10/40/19
f 55/41/20 60/42/20 56/38/20
f 54/43/21 59/44/21 55/41/21
f 53/27/22 58/45/22 54/43/22
f 52/46/23 10/40/23 9/47/23
f 51/48/24 56/38/24 52/46/24
f 50/49/25 55/41/25 51/48/25
f 49/24/26 54/43/26 50/49/26
f 24/50/27 9/47/27 3/51/27
f 23/52/28 52/46/28 24/50/28
f 22/53/29 51/48/29 23/52/29
f 21/25/30 50/49/30 22/53/30
f 44/54/31 20/7/31 19/31/31
f 43/55/32 48/56/32 44/54/32
f 42/57/33 47/58/33 43/55/33
f 41/22/34 46/59/34 42/57/34
f 40/60/35 19/31/35 18/30/35
f 39/61/36 44/54/36 40/60/36
f 38/62/37 43/55/37 39/61/37
f 37/19/38 42/57/38 38/62/38
f 28/63/39 18/30/39 8/29/39
f 27/64/40 40/60/40 28/63/40
f 26/65/41 39/61/41 27/64/41
f 25/20/42 38/62/42 26/65/42
f 48/56/43 6/66/43 20/7/43
f 47/58/44 33/67/44 48/56/44
f 46/59/45 34/68/45 47/58/45
f 45/17/46 35/69/46 46/59/46
f 60/42/47 1/70/47 11/39/47
f 59/44/48 29/71/48 60/42/48
f 58/45/49 30/72/49 59/44/49
f 57/14/50 31/73/50 58/45/50
f 6/66/51 32/74/51 5/8/51
f 33/75/52 31/76/52 32/74/52
f 34/77/53 30/78/53 31/76/53
f 35/79/54 29/12/54 30/78/54
f 4/80/55 24/81/55 3/2/55
f 25/82/56 23/83/56 24/81/56
f 26/84/57 22/85/57 23/83/57
f 27/86/58 21/6/58 22/85/58
f 14/1/1 4/80/1 3/2/1
f 28/4/2 8/29/2 7/5/2
f 20/7/3 6/66/3 5/8/3
f 36/10/4 2/87/4 1/11/4
f 15/9/59 5/8/59 32/13/59
f 12/15/60 2/88/60 36/16/60
f 4/18/61 14/21/61 37/19/61
f 14/21/62 13/23/62 41/22/62
f 13/23/63 12/15/63 45/17/63
f 7/5/64 17/26/64 49/24/64
f 17/26/65 16/28/65 53/27/65
f 16/28/66 15/9/66 57/14/66
f 8/29/13 18/30/13 17/26/13
f 18/30/14 19/31/14 16/28/14
f 19/31/15 20/7/15 15/9/15
f 2/32/16 12/35/16 11/33/16
f 12/35/17 13/37/17 10/36/17
f 13/37/18 14/1/18 9/3/18
f 56/38/67 60/42/67 11/39/67
f 55/41/68 59/44/68 60/42/68
f 54/43/69 58/45/69 59/44/69
f 53/27/70 57/14/70 58/45/70
f 52/46/71 56/38/71 10/40/71
f 51/48/72 55/41/72 56/38/72
f 50/49/73 54/43/73 55/41/73
f 49/24/74 53/27/74 54/43/74
f 24/50/75 52/46/75 9/47/75
f 23/52/76 51/48/76 52/46/76
f 22/53/77 50/49/77 51/48/77
f 21/25/78 49/24/78 50/49/78
f 44/54/79 48/56/79 20/7/79
f 43/55/80 47/58/80 48/56/80
f 42/57/81 46/59/81 47/58/81
f 41/22/82 45/17/82 46/59/82
f 40/60/83 44/54/83 19/31/83
f 39/61/84 43/55/84 44/54/84
f 38/62/85 42/57/85 43/55/85
f 37/19/86 41/22/86 42/57/86
f 28/63/87 40/60/87 18/30/87
f 27/64/88 39/61/88 40/60/88
f 26/65/89 38/62/89 39/61/89
f 25/20/90 37/19/90 38/62/90
f 48/56/91 33/67/91 6/66/91
f 47/58/92 34/68/92 33/67/92
f 46/59/93 35/69/93 34/68/93
f 45/17/94 36/16/94 35/69/94
f 60/42/95 29/71/95 1/70/95
f 59/44/96 30/72/96 29/71/96
f 58/45/97 31/73/97 30/72/97
f 57/14/98 32/13/98 31/73/98
f 6/66/51 33/75/51 32/74/51
f 33/75/52 34/77/52 31/76/52
f 34/77/53 35/79/53 30/78/53
f 35/79/54 36/10/54 29/12/54
f 4/80/55 25/82/55 24/81/55
f 25/82/56 26/84/56 23/83/56
f 26/84/57 27/86/57 22/85/57
f 27/86/58 28/4/58 21/6/58
